<?xml version="1.0" encoding="iso-8859-1"?>
<!-- Uploaded to: SVG Repo, www.svgrepo.com, Generator: SVG Repo Mixer Tools -->
<svg fill="#000000" height="800px" width="800px" version="1.1" id="Layer_1" xmlns="http://www.w3.org/2000/svg" xmlns:xlink="http://www.w3.org/1999/xlink" 
	 viewBox="0 0 472.615 472.615" xml:space="preserve">
<g>
	<g>
		<path d="M453.911,363.592l-77.115-77.02c-7.682-7.681-20.191-7.681-27.871,0l-8.962,8.962l-26.412-26.41
			c0,0-0.231,0.082-0.299,0.101c0.074-0.107,0.133-0.223,0.206-0.33c1.869-2.719,3.542-5.573,5.255-8.405
			c0.976-1.618,2.024-3.201,2.942-4.842c1.665-2.971,3.149-6.042,4.639-9.117c0.76-1.572,1.564-3.126,2.273-4.718
			c1.418-3.169,2.68-6.41,3.908-9.678c0.588-1.566,1.182-3.125,1.722-4.704c1.13-3.297,2.142-6.638,3.074-10.022
			c0.453-1.646,0.87-3.297,1.273-4.955c0.809-3.324,1.557-6.663,2.168-10.061c0.346-1.914,0.597-3.836,0.878-5.759
			c0.463-3.185,0.943-6.358,1.229-9.597c0.267-2.972,0.338-5.948,0.451-8.927c0.077-2.117,0.319-4.19,0.319-6.323
			c0-1.279-0.163-2.518-0.191-3.792c-0.084-4.098-0.245-8.194-0.62-12.28c-0.186-2.011-0.503-3.976-0.758-5.965
			c-0.437-3.452-0.926-6.889-1.573-10.314c-0.358-1.884-0.782-3.734-1.202-5.595c-0.804-3.601-1.718-7.173-2.757-10.726
			c-0.435-1.476-0.876-2.947-1.35-4.406c-1.321-4.103-2.816-8.152-4.452-12.164c-0.332-0.807-0.636-1.622-0.979-2.422
			c-8.323-19.539-20.313-37.88-36.23-53.82c-15.698-15.698-33.751-27.572-52.977-35.922c-0.734-0.321-1.436-0.697-2.174-1.007
			c-3.829-1.6-7.727-2.951-11.642-4.26c-1.505-0.509-2.969-1.103-4.493-1.57c-3.488-1.06-7.024-1.88-10.562-2.715
			c-1.996-0.475-3.949-1.052-5.972-1.455c-3.604-0.718-7.24-1.174-10.875-1.659c-1.978-0.266-3.914-0.655-5.913-0.852
			C183.2,0.303,177.512,0,171.822,0.002c-0.007,0-0.013-0.002-0.02-0.002c-0.233,0-0.459,0.033-0.692,0.035
			c-5.423,0.023-10.844,0.289-16.245,0.82c-2.511,0.245-4.949,0.717-7.426,1.069c-3.096,0.441-6.197,0.806-9.268,1.414
			c-2.607,0.519-5.13,1.241-7.693,1.876c-2.925,0.72-5.859,1.374-8.749,2.25c-2.209,0.672-4.337,1.513-6.507,2.271
			c-3.201,1.111-6.406,2.189-9.548,3.495c-1.58,0.659-3.087,1.444-4.641,2.148c-3.627,1.636-7.245,3.292-10.774,5.19
			c-0.841,0.455-1.631,0.986-2.464,1.454c-13.448,7.533-26.159,16.855-37.583,28.279C38.615,61.918,29.157,74.844,21.58,88.539
			c-0.294,0.532-0.637,1.032-0.926,1.567c-2.058,3.815-3.864,7.722-5.612,11.651c-0.555,1.242-1.191,2.437-1.718,3.693
			c-1.433,3.438-2.624,6.943-3.824,10.45c-0.639,1.856-1.374,3.666-1.951,5.55c-0.976,3.204-1.709,6.455-2.494,9.7
			c-0.544,2.239-1.196,4.433-1.652,6.706c-0.728,3.642-1.186,7.319-1.678,10.993c-0.254,1.901-0.643,3.754-0.835,5.675
			c-0.563,5.63-0.845,11.281-0.856,16.934c0,0.111-0.017,0.217-0.017,0.328c0,1.444,0.181,2.844,0.217,4.279
			c0.101,4.127,0.227,8.249,0.624,12.36c0.224,2.335,0.643,4.603,0.959,6.909c0.449,3.275,0.859,6.55,1.496,9.798
			c0.457,2.32,1.08,4.572,1.63,6.857c0.769,3.221,1.517,6.441,2.474,9.622c0.584,1.93,1.298,3.794,1.948,5.693
			c1.188,3.502,2.397,6.994,3.816,10.428c0.556,1.335,1.201,2.619,1.79,3.937c1.728,3.899,3.532,7.763,5.563,11.549
			c0.372,0.689,0.794,1.343,1.175,2.026c2.367,4.271,4.878,8.473,7.635,12.569c0.026,0.037,0.054,0.073,0.079,0.109
			c5.76,8.543,12.251,16.737,19.708,24.346v-0.335c31.181,31.835,74.593,51.64,122.673,51.64c0.217,0,0.425-0.032,0.642-0.033
			l-0.601,0.255c22.317,0,44.545-4.512,65.457-13.221c1.256-0.52,2.483-1.088,3.725-1.636c3.251-1.444,6.464-2.99,9.64-4.643
			c1.697-0.88,3.388-1.757,5.051-2.69c2.755-1.551,5.451-3.23,8.136-4.943c1.634-1.041,3.311-2.015,4.908-3.108
			c0.069-0.047,0.142-0.086,0.211-0.134c0.003,0.038,0.01,0.17,0.01,0.17l26.482,26.445l-8.982,8.98
			c-7.682,7.683-7.682,20.19,0,27.872l77.115,77.116c12.41,12.41,28.759,18.614,45.107,18.614c16.349,0,32.798-6.204,45.206-18.614
			C478.828,429.085,478.828,388.508,453.911,363.592z M171.844,59.037c30.037,0,54.471,24.438,54.471,54.476
			c0,30.036-24.434,54.465-54.471,54.465s-54.471-24.429-54.471-54.465C117.373,83.475,141.807,59.037,171.844,59.037z
			 M295.346,291.393l-0.615,0.261c0.213-0.218,0.404-0.457,0.615-0.677V291.393z M295.346,260.154
			C267.725,298.66,222.7,323.88,171.803,323.88c-50.378,0-94.981-24.724-122.673-62.562V242.69
			c0-33.394,23.039-63.632,56.029-73.528l13.729-4.051l52.957,52.947l52.956-52.947l13.686,4.041
			c33.495,10.04,56.861,40.192,56.861,73.315V260.154z M369.852,383.841l-13.926-13.927l13.926-13.925l13.926,13.925
			L369.852,383.841z M397.71,411.695l-13.926-13.928l13.926-13.925l13.927,13.925L397.71,411.695z"/>
	</g>
</g>
</svg>